# xmcd
#
# Track frame offsets:
#	150
#	14375
#	27549
#	43879
#	64492
#	84846
#	102891
#	120287
#	136329
#	153603
#	169325
#	186078
#	205276
#	219161
#	237032
#
# Disc length: 3393 seconds
#
# Revision: 0
# Processed by: cddbd v1.5.1PL0 Copyright (c) Steve Scherf et al.
# Submitted via: audiograbber 1.83.01
#
DISCID=cb0d3f0f
DTITLE=V - CB60014
DYEAR=1900
DGENRE=Karaoke Country
TTITLE0=Brooks and Dunn - We'll Burn The Bridge
TTITLE1=Clay Walker - Waht's It To You
TTITLE2=Suzy Bogguss - Heartache
TTITLE3=Steve Wariner - Drivin' and Cryin
TTITLE4=Garth Brooks - Dixie Chicken
TTITLE5=Wynonna Judd - Is It Over Yet?
TTITLE6=Neal McCoy - No Doubt About It
TTITLE7=Aaron Tippin - My Blue Angel
TTITLE8=Carlene Carter - Unbreakable Heart
TTITLE9=Clint Black - State Of Mind
TTITLE10=Doug Stone - I Never Knew Love
TTITLE11=Kathy Mattea - Standing Knee Deep In A River
TTITLE12=Randy Travis - An Old Pair Of Shoes
TTITLE13=Billy Ray Cyrus - Somebody New
TTITLE14=Pam Tillis - Do You Know Where Your Man Is
EXTD=Chartbuster
EXTT0=
EXTT1=
EXTT2=
EXTT3=
EXTT4=
EXTT5=
EXTT6=
EXTT7=
EXTT8=
EXTT9=
EXTT10=
EXTT11=
EXTT12=
EXTT13=
EXTT14=
PLAYORDER=
